<svg width="269" height="67" viewBox="0 0 269 67" fill="none" xmlns="http://www.w3.org/2000/svg">
<g clip-path="url(#clip0)">
<path d="M210.95 66.8655V59.6453H212.157V66.8655H210.95Z" fill="#FF4F00"/>
<path d="M218.8 59.6453V60.753H216.645V66.8655H215.442V60.753H213.292V59.6453H218.8Z" fill="#FF4F00"/>
<path d="M225.703 66.5157C225.22 66.8574 224.634 67.0281 224.04 67.0001C223.441 67.03 222.85 66.847 222.377 66.4843C222.171 66.3148 222.006 66.1026 221.894 65.8631C221.781 65.6236 221.724 65.3625 221.725 65.0986H222.86C222.861 65.2291 222.894 65.3575 222.955 65.473C223.017 65.5885 223.106 65.6877 223.215 65.7623C223.472 65.9261 223.775 66.0075 224.081 65.9955C224.358 66.0045 224.632 65.9377 224.874 65.8027C224.969 65.7487 225.047 65.6708 225.102 65.5771C225.156 65.4833 225.184 65.377 225.183 65.269C225.185 65.1729 225.16 65.0783 225.111 64.9954C225.063 64.92 225.001 64.8544 224.928 64.8026C224.837 64.743 224.737 64.6976 224.632 64.6681C224.505 64.6277 224.391 64.6008 224.29 64.5784L223.885 64.5021L223.47 64.4304C223.366 64.4304 223.233 64.3766 223.069 64.3317C222.934 64.2942 222.801 64.2463 222.673 64.1882C222.56 64.1267 222.451 64.0593 222.345 63.9864C222.234 63.911 222.14 63.815 222.067 63.7039C221.992 63.589 221.935 63.4634 221.898 63.3317C221.848 63.1736 221.823 63.0086 221.826 62.8428C221.821 62.6074 221.873 62.3742 221.979 62.1627C222.084 61.9513 222.239 61.7678 222.432 61.6275C222.894 61.3042 223.455 61.146 224.022 61.179C224.59 61.1517 225.15 61.3232 225.603 61.6634C225.797 61.8202 225.953 62.0182 226.059 62.2426C226.164 62.467 226.217 62.7121 226.213 62.9594H225.111C225.112 62.8425 225.085 62.727 225.032 62.6224C224.979 62.5178 224.901 62.4273 224.805 62.3585C224.565 62.2072 224.283 62.1335 223.999 62.1477C223.737 62.1386 223.477 62.204 223.252 62.3361C223.166 62.3875 223.095 62.46 223.046 62.5465C222.998 62.633 222.973 62.7305 222.974 62.8294C222.971 62.9028 222.983 62.9761 223.01 63.0446C223.041 63.1102 223.09 63.166 223.151 63.2061C223.212 63.2494 223.276 63.2884 223.343 63.3227C223.427 63.3619 223.516 63.3905 223.607 63.4079L223.899 63.4707L224.231 63.529C224.637 63.5835 225.035 63.6797 225.42 63.816C225.687 63.9169 225.916 64.0945 226.079 64.3257C226.242 64.5569 226.33 64.8309 226.332 65.112C226.332 65.1524 226.332 65.1928 226.332 65.2421C226.336 65.4881 226.281 65.7316 226.172 65.9529C226.063 66.1742 225.902 66.367 225.703 66.5157Z" fill="#2A3468"/>
<path d="M231.735 66.6233C231.258 66.8707 230.727 67.0001 230.188 67.0001C229.649 67.0001 229.118 66.8707 228.642 66.6233C228.191 66.376 227.816 66.0134 227.557 65.5739C227.3 65.116 227.166 64.6014 227.166 64.0783C227.166 63.5552 227.3 63.0406 227.557 62.5827C227.815 62.1435 228.19 61.7822 228.642 61.5378C229.118 61.2903 229.649 61.161 230.188 61.161C230.727 61.161 231.258 61.2903 231.735 61.5378C232.187 61.7822 232.562 62.1435 232.82 62.5827C233.076 63.0406 233.211 63.5552 233.211 64.0783C233.211 64.6014 233.076 65.116 232.82 65.5739C232.561 66.0134 232.186 66.376 231.735 66.6233ZM228.865 65.3945C229.223 65.7262 229.696 65.9109 230.188 65.9109C230.68 65.9109 231.154 65.7262 231.512 65.3945C231.757 65.1399 231.92 64.8202 231.983 64.475C232.045 64.1298 232.003 63.7743 231.862 63.4522C231.722 63.1302 231.488 62.8558 231.19 62.6631C230.893 62.4703 230.545 62.3675 230.188 62.3675C229.832 62.3675 229.484 62.4703 229.186 62.6631C228.889 62.8558 228.655 63.1302 228.514 63.4522C228.374 63.7743 228.332 64.1298 228.394 64.475C228.456 64.8202 228.62 65.1399 228.865 65.3945Z" fill="#2A3468"/>
<path d="M234.451 66.8655V59.3H235.612V66.8655H234.451Z" fill="#2A3468"/>
<path d="M241.617 66.3229C241.096 66.7601 240.434 67.0002 239.749 67.0002C239.065 67.0002 238.402 66.7601 237.881 66.3229C237.646 66.0868 237.463 65.8059 237.342 65.4974C237.221 65.1889 237.166 64.8593 237.18 64.529V61.3091H238.337V64.3676C238.328 64.7736 238.472 65.1685 238.743 65.4753C239.017 65.7439 239.388 65.8947 239.775 65.8947C240.161 65.8947 240.532 65.7439 240.806 65.4753C241.071 65.1563 241.204 64.7515 241.18 64.3407V61.2822H242.342V64.5021C242.356 64.8385 242.299 65.1741 242.175 65.4877C242.05 65.8012 241.86 66.0856 241.617 66.3229Z" fill="#2A3468"/>
<path d="M246.411 65.8296H247.053V66.8655H246.187C245.918 66.8874 245.646 66.8511 245.392 66.7591C245.138 66.6671 244.908 66.5216 244.717 66.3329C244.526 66.1441 244.379 65.9166 244.287 65.6662C244.195 65.4159 244.159 65.1487 244.183 64.8833V62.2778H243.171V62.058L245.139 59.9951H245.34V61.2956H247.021V62.2778H245.349V64.7891C245.339 64.9292 245.359 65.0698 245.406 65.2023C245.453 65.3349 245.526 65.4567 245.622 65.5605C245.729 65.655 245.853 65.7275 245.989 65.7737C246.124 65.8199 246.268 65.8389 246.411 65.8296Z" fill="#2A3468"/>
<path d="M248.16 60.4345V59.2506H249.363V60.4345H248.16ZM248.16 66.8655V61.2956H249.322V66.8655H248.16Z" fill="#2A3468"/>
<path d="M255.145 66.6233C254.668 66.8707 254.137 67.0001 253.598 67.0001C253.059 67.0001 252.528 66.8707 252.051 66.6233C251.6 66.376 251.226 66.0134 250.967 65.5739C250.71 65.116 250.575 64.6014 250.575 64.0783C250.575 63.5552 250.71 63.0406 250.967 62.5827C251.225 62.1435 251.6 61.7822 252.051 61.5378C252.528 61.2903 253.059 61.161 253.598 61.161C254.137 61.161 254.668 61.2903 255.145 61.5378C255.596 61.7822 255.971 62.1435 256.229 62.5827C256.486 63.0406 256.621 63.5552 256.621 64.0783C256.621 64.6014 256.486 65.116 256.229 65.5739C255.97 66.0134 255.596 66.376 255.145 66.6233ZM252.274 65.3945C252.633 65.7262 253.106 65.9109 253.598 65.9109C254.09 65.9109 254.563 65.7262 254.921 65.3945C255.166 65.1399 255.33 64.8202 255.392 64.475C255.455 64.1298 255.413 63.7743 255.272 63.4522C255.131 63.1302 254.898 62.8558 254.6 62.6631C254.302 62.4703 253.954 62.3675 253.598 62.3675C253.242 62.3675 252.893 62.4703 252.596 62.6631C252.298 62.8558 252.065 63.1302 251.924 63.4522C251.783 63.7743 251.741 64.1298 251.804 64.475C251.866 64.8202 252.03 65.1399 252.274 65.3945Z" fill="#2A3468"/>
<path d="M260.858 61.1701C261.152 61.1575 261.445 61.2093 261.716 61.3217C261.987 61.4342 262.229 61.6045 262.425 61.8203C262.828 62.292 263.036 62.8954 263.009 63.511V66.8655H261.847V63.7263C261.877 63.3155 261.759 62.9074 261.514 62.5737C261.395 62.4384 261.245 62.3323 261.076 62.2638C260.908 62.1954 260.726 62.1663 260.544 62.1791C260.338 62.1723 260.133 62.2116 259.944 62.2939C259.755 62.3762 259.588 62.4995 259.455 62.6545C259.162 62.9904 259.009 63.423 259.027 63.8653V66.8476H257.878V61.2956H258.685L258.917 62.0715C259.135 61.7858 259.422 61.5578 259.751 61.4077C260.098 61.249 260.476 61.1678 260.858 61.1701Z" fill="#2A3468"/>
<path d="M268.134 66.5157C267.652 66.858 267.065 67.0288 266.471 67C265.873 67.0301 265.285 66.847 264.813 66.4843C264.607 66.3152 264.441 66.1032 264.327 65.8637C264.214 65.6241 264.156 65.3629 264.157 65.0986H265.296C265.297 65.2291 265.33 65.3575 265.391 65.473C265.453 65.5885 265.542 65.6877 265.651 65.7623C265.907 65.9254 266.208 66.0069 266.512 65.9955C266.79 66.0044 267.064 65.9377 267.305 65.8027C267.401 65.7496 267.481 65.6721 267.537 65.5782C267.592 65.4843 267.62 65.3775 267.619 65.269C267.62 65.1725 267.593 65.0779 267.542 64.9954C267.495 64.9211 267.435 64.8558 267.364 64.8026C267.273 64.743 267.173 64.6976 267.068 64.6681C266.941 64.6277 266.827 64.6008 266.726 64.5784L266.316 64.5021L265.902 64.4304L265.505 64.3317C265.37 64.2942 265.237 64.2463 265.109 64.1882C264.995 64.1267 264.884 64.0594 264.776 63.9864C264.667 63.9097 264.573 63.8139 264.498 63.7039C264.423 63.5889 264.367 63.4634 264.33 63.3317C264.283 63.1729 264.26 63.0082 264.262 62.8428C264.256 62.6072 264.308 62.3736 264.413 62.162C264.519 61.9503 264.674 61.767 264.868 61.6275C265.33 61.3042 265.891 61.146 266.458 61.179C267.025 61.1519 267.583 61.3235 268.034 61.6634C268.229 61.8202 268.384 62.0182 268.49 62.2426C268.596 62.467 268.649 62.7121 268.645 62.9594H267.547C267.548 62.8421 267.52 62.7263 267.466 62.6217C267.412 62.5171 267.334 62.4268 267.237 62.3585C266.998 62.2052 266.715 62.1314 266.43 62.1477C266.164 62.1346 265.899 62.1985 265.669 62.3316C265.582 62.3817 265.51 62.4539 265.46 62.5406C265.411 62.6272 265.385 62.7254 265.387 62.8249C265.386 62.8986 265.4 62.9719 265.428 63.0402C265.458 63.1067 265.507 63.1629 265.569 63.2016C265.628 63.2458 265.69 63.2848 265.756 63.3182C265.842 63.3573 265.932 63.3859 266.025 63.4034L266.312 63.4662L266.644 63.5245C267.051 63.5792 267.451 63.6753 267.838 63.8115C268.105 63.9119 268.335 64.0894 268.498 64.3207C268.66 64.552 268.748 64.8263 268.749 65.1075C268.752 65.1509 268.752 65.1943 268.749 65.2376C268.756 65.4832 268.704 65.7269 268.597 65.9489C268.49 66.171 268.332 66.3651 268.134 66.5157Z" fill="#2A3468"/>
<path d="M225.074 6.86145L226.236 7.75837L229.289 10.1128C229.591 10.351 229.956 10.4999 230.341 10.5422C230.727 10.5845 231.116 10.5185 231.465 10.3519C231.813 10.1853 232.107 9.92483 232.311 9.60073C232.515 9.27664 232.622 8.90217 232.619 8.52075V2.02256C232.617 1.64503 232.507 1.27573 232.302 0.956652C232.097 0.63757 231.805 0.381496 231.459 0.21753C231.114 0.0535644 230.728 -0.0117167 230.347 0.029106C229.966 0.0699286 229.604 0.215218 229.302 0.448462L226.25 2.79839L225.088 3.69532C224.843 3.88271 224.646 4.12228 224.509 4.39594C224.372 4.66961 224.301 4.97022 224.299 5.27511C224.298 5.58 224.367 5.88121 224.501 6.156C224.636 6.4308 224.831 6.67201 225.074 6.86145Z" fill="#FF4F00"/>
<path d="M95.169 3.28278C96.7226 3.28278 97.1919 3.81644 97.1919 5.34121V14.6737C97.9346 14.3418 101.712 13.7454 105.288 13.7454C114.665 13.7454 119.321 18.1941 119.321 27.0915V47.0884C119.321 48.6132 118.779 49.1468 117.23 49.1468H113.585C112.036 49.1468 111.494 48.6132 111.494 47.0884V27.2889C111.494 22.9747 109.065 20.7817 104.14 20.7817C100.837 20.7817 98.5405 21.1136 97.1919 21.7773V47.0884C97.1919 48.6132 96.7363 49.1468 95.169 49.1468H91.4603C89.9066 49.1468 89.369 48.6132 89.369 47.0884V5.34121C89.369 3.81644 89.9066 3.28278 91.4603 3.28278H95.169Z" fill="#2A3468"/>
<path d="M150.955 59.4973C149.405 59.4973 148.932 58.9681 148.932 57.4388V47.5368C148.189 47.8687 144.412 48.4696 140.835 48.4696C131.459 48.4696 126.807 44.0209 126.807 35.1234V16.7993C126.807 15.2746 127.345 14.7409 128.898 14.7409H132.543C134.097 14.7409 134.634 15.2746 134.634 16.7993V34.9261C134.634 39.2403 137.063 41.4333 141.988 41.4333C145.296 41.4333 147.588 41.1014 148.936 40.4377V16.7993C148.936 15.2746 149.392 14.7409 150.959 14.7409H154.672C156.221 14.7409 156.764 15.2746 156.764 15.14V55.7795C156.764 58.9681 156.221 59.4973 154.672 59.4973H150.955Z" fill="#2A3468"/>
<path d="M169.908 3.28278C171.462 3.28278 171.931 3.81644 171.931 5.34121V14.8755C175.239 14.1445 177.936 13.7454 180.027 13.7454C189.404 13.7454 194.06 18.1941 194.06 27.0915V36.0608C194.06 45.4246 188.998 50.1379 178.815 50.1379C174.022 50.1379 169.976 49.4069 166.605 48.0122C164.445 47.0166 164.108 46.483 164.108 44.3618V5.34569C164.108 3.82093 164.646 3.28726 166.199 3.28726L169.908 3.28278ZM186.233 27.2889C186.233 23.1092 183.672 20.7817 178.879 20.7817C176.513 20.8061 174.166 21.209 171.931 21.9746V41.5679C171.933 41.7301 171.986 41.8876 172.084 42.0186C172.181 42.1496 172.317 42.2476 172.473 42.2988C174.348 42.8784 176.309 43.1466 178.273 43.0926C183.604 43.0926 186.233 40.7023 186.233 35.8545V27.2889Z" fill="#2A3468"/>
<path d="M218.003 13.7454C219.557 13.7454 220.094 14.1938 220.094 15.8038V18.7233C220.094 20.2525 219.557 20.7817 218.003 20.7817H215.579C213.414 20.7386 211.254 21.0075 209.169 21.58C209.069 21.584 208.972 21.6085 208.883 21.6518C208.794 21.6952 208.715 21.7565 208.651 21.8317C208.588 21.9069 208.541 21.9944 208.514 22.0886C208.487 22.1827 208.48 22.2814 208.494 22.3782V47.0884C208.494 48.6132 208.039 49.1468 206.471 49.1468H202.749C201.2 49.1468 200.658 48.6132 200.658 47.0884V19.5215C200.658 17.3958 201.113 16.6021 203.291 15.7365C206.596 14.5406 210.778 13.8769 215.839 13.7454H218.003Z" fill="#2A3468"/>
<path d="M230.282 14.7409C231.831 14.7409 232.373 15.1894 232.373 16.7321V47.0884C232.373 48.6131 231.831 49.1468 230.282 49.1468H226.569C225.019 49.1468 224.546 48.6131 224.546 47.0884V16.7321C224.546 15.2073 225.001 14.7409 226.569 14.7409H230.282Z" fill="#2A3468"/>
<path d="M239.048 27.6207C239.048 18.5932 243.773 13.7454 253.172 13.7454C255.868 13.7983 258.555 14.0864 261.2 14.6064V5.34121C261.2 3.81644 261.655 3.28278 263.223 3.28278H266.932C268.485 3.28278 269.023 3.81644 269.023 5.34121V44.3573C269.023 46.4785 268.485 47.1422 266.326 48.0077C262.282 49.4496 258.01 50.1695 253.71 50.1334C243.927 50.1334 239.071 45.6847 239.071 36.72L239.048 27.6207ZM261.177 21.6472C259.032 21.1288 256.837 20.8386 254.63 20.7817C249.436 20.7817 246.884 23.1092 246.884 27.8225V36.4554C246.884 40.9041 249.381 43.0926 254.439 43.0926C256.531 43.1162 258.617 42.8705 260.644 42.3616C260.801 42.3115 260.938 42.2139 261.035 42.0826C261.133 41.9514 261.186 41.7932 261.186 41.6306L261.177 21.6472Z" fill="#2A3468"/>
<path d="M19.2862 26.1803L29.7061 18.1438L7.44476 0.972292C6.76512 0.448868 5.94976 0.123891 5.09161 0.0343945C4.23345 -0.0551019 3.36701 0.0944816 2.59102 0.466099C1.81503 0.837716 1.1607 1.41642 0.702604 2.13627C0.244505 2.85611 0.00105614 3.68815 1.50898e-06 4.53755V54.958C-0.00322314 55.8093 0.237122 56.6443 0.693529 57.3674C1.14994 58.0906 1.80396 58.6726 2.58076 59.047C3.35756 59.4213 4.22574 59.5728 5.08593 59.4842C5.94613 59.3955 6.76359 59.0703 7.44476 58.5457L29.7061 41.3517L19.2862 33.3153C18.7368 32.8911 18.2925 32.3495 17.987 31.7315C17.6815 31.1134 17.5227 30.4351 17.5227 29.7478C17.5227 29.0604 17.6815 28.3821 17.987 27.7641C18.2925 27.146 18.7368 26.6044 19.2862 26.1803Z" fill="#01BEFE"/>
<path d="M51.9721 0.973207L29.7061 18.1448L40.1306 26.1812C40.6801 26.6054 41.1243 27.1469 41.4299 27.765C41.7354 28.383 41.8941 29.0614 41.8941 29.7487C41.8941 30.436 41.7354 31.1143 41.4299 31.7324C41.1243 32.3504 40.6801 32.892 40.1306 33.3162L29.7061 41.3526L51.9721 58.5241C52.6532 59.0487 53.4707 59.374 54.3309 59.4626C55.1911 59.5513 56.0593 59.3998 56.8361 59.0254C57.6129 58.6511 58.2669 58.069 58.7233 57.3459C59.1797 56.6228 59.4201 55.7878 59.4168 54.9365V4.53847C59.4158 3.68906 59.1723 2.85703 58.7142 2.13718C58.2561 1.41734 57.6018 0.838632 56.8258 0.467014C56.0498 0.0953972 55.1834 -0.0541863 54.3252 0.03531C53.4671 0.124806 52.6517 0.449783 51.9721 0.973207Z" fill="#FF4F00"/>
<path d="M40.1306 26.1812L29.7061 18.1448L19.2862 26.1812C18.7368 26.6054 18.2925 27.147 17.987 27.765C17.6815 28.383 17.5227 29.0614 17.5227 29.7487C17.5227 30.436 17.6815 31.1143 17.987 31.7324C18.2925 32.3504 18.7368 32.892 19.2862 33.3162L29.7061 41.3526L40.1306 33.3162C40.6801 32.892 41.1243 32.3504 41.4299 31.7324C41.7354 31.1143 41.8941 30.436 41.8941 29.7487C41.8941 29.0614 41.7354 28.383 41.4299 27.765C41.1243 27.147 40.6801 26.6054 40.1306 26.1812Z" fill="#2A3468"/>
</g>
<defs>
<clipPath id="clip0">
<rect width="269" height="67" fill="white"/>
</clipPath>
</defs>
</svg>
